<mxfile host="app.diagrams.net" modified="2022-06-16T12:43:53.064Z" agent="5.0 (Windows NT 10.0; Win64; x64) AppleWebKit/537.36 (KHTML, like Gecko) Chrome/102.0.0.0 Safari/537.36" etag="nCutvwJorWbexNiVsjxg" version="20.0.1" type="github">
  <diagram id="aF7s2sprtSHc23R29G0n" name="Page-1">
    <mxGraphModel dx="2059" dy="749" grid="1" gridSize="10" guides="1" tooltips="1" connect="1" arrows="1" fold="1" page="1" pageScale="1" pageWidth="850" pageHeight="1100" math="0" shadow="0">
      <root>
        <mxCell id="0" />
        <mxCell id="1" parent="0" />
        <mxCell id="FdqzSN1PzzM8iArC-SXY-47" value="" style="rounded=0;whiteSpace=wrap;html=1;fontSize=16;fillColor=#F0F0F0;" vertex="1" parent="1">
          <mxGeometry x="-80" y="100" width="870" height="460" as="geometry" />
        </mxCell>
        <mxCell id="FdqzSN1PzzM8iArC-SXY-46" value="" style="html=1;shadow=0;dashed=0;align=center;verticalAlign=middle;shape=mxgraph.arrows2.arrow;dy=0.6;dx=40;notch=0;fontSize=16;fillColor=#f5f5f5;fontColor=#333333;strokeColor=#666666;" vertex="1" parent="1">
          <mxGeometry x="544.5" y="322" width="75.5" height="70" as="geometry" />
        </mxCell>
        <mxCell id="FdqzSN1PzzM8iArC-SXY-129" value="" style="group" vertex="1" connectable="0" parent="1">
          <mxGeometry x="-60" y="140" width="604.5" height="362.5" as="geometry" />
        </mxCell>
        <mxCell id="FdqzSN1PzzM8iArC-SXY-1" value="" style="shape=parallelogram;perimeter=parallelogramPerimeter;whiteSpace=wrap;html=1;fixedSize=1;fillColor=#f5f5f5;fontColor=#333333;strokeColor=#666666;" vertex="1" parent="FdqzSN1PzzM8iArC-SXY-129">
          <mxGeometry width="604.5" height="362.5" as="geometry" />
        </mxCell>
        <mxCell id="FdqzSN1PzzM8iArC-SXY-32" value="" style="group" vertex="1" connectable="0" parent="FdqzSN1PzzM8iArC-SXY-129">
          <mxGeometry x="394.5" y="250.5" width="147" height="94" as="geometry" />
        </mxCell>
        <mxCell id="FdqzSN1PzzM8iArC-SXY-33" value="" style="aspect=fixed;perimeter=ellipsePerimeter;html=1;align=center;shadow=0;dashed=0;spacingTop=3;image;image=img/lib/active_directory/input_output_filter.svg;fontSize=16;" vertex="1" parent="FdqzSN1PzzM8iArC-SXY-32">
          <mxGeometry y="25" width="33.5" height="50" as="geometry" />
        </mxCell>
        <mxCell id="FdqzSN1PzzM8iArC-SXY-34" value="" style="shape=image;html=1;verticalAlign=top;verticalLabelPosition=bottom;labelBackgroundColor=#ffffff;imageAspect=0;aspect=fixed;image=https://cdn2.iconfinder.com/data/icons/crystalproject/Open-Office-Icons/stock_stop-16.png;fontFamily=Helvetica;fontSize=16;fontColor=default;align=center;strokeColor=default;strokeWidth=1;fillColor=default;" vertex="1" parent="FdqzSN1PzzM8iArC-SXY-32">
          <mxGeometry x="48" width="72" height="26" as="geometry" />
        </mxCell>
        <mxCell id="FdqzSN1PzzM8iArC-SXY-35" value="" style="endArrow=none;html=1;rounded=0;fontSize=16;" edge="1" parent="FdqzSN1PzzM8iArC-SXY-32">
          <mxGeometry width="50" height="50" relative="1" as="geometry">
            <mxPoint x="30" y="55" as="sourcePoint" />
            <mxPoint x="80" y="25" as="targetPoint" />
          </mxGeometry>
        </mxCell>
        <mxCell id="FdqzSN1PzzM8iArC-SXY-63" value="" style="group" vertex="1" connectable="0" parent="FdqzSN1PzzM8iArC-SXY-32">
          <mxGeometry x="-220" y="-238" width="367" height="332" as="geometry" />
        </mxCell>
        <mxCell id="FdqzSN1PzzM8iArC-SXY-64" value="" style="aspect=fixed;perimeter=ellipsePerimeter;html=1;align=center;shadow=0;dashed=0;spacingTop=3;image;image=img/lib/active_directory/input_output_filter.svg;fontSize=16;" vertex="1" parent="FdqzSN1PzzM8iArC-SXY-63">
          <mxGeometry y="20" width="33.22314049586777" height="49.586776859504134" as="geometry" />
        </mxCell>
        <mxCell id="FdqzSN1PzzM8iArC-SXY-65" value="" style="shape=image;html=1;verticalAlign=top;verticalLabelPosition=bottom;labelBackgroundColor=#ffffff;imageAspect=0;aspect=fixed;image=https://cdn4.iconfinder.com/data/icons/essentials-74/24/040_-_Tick-128.png;fontSize=16;" vertex="1" parent="FdqzSN1PzzM8iArC-SXY-63">
          <mxGeometry x="70.41322314049587" width="49.586776859504134" height="49.586776859504134" as="geometry" />
        </mxCell>
        <mxCell id="FdqzSN1PzzM8iArC-SXY-66" value="" style="endArrow=none;html=1;rounded=0;fontSize=16;entryX=0;entryY=0.5;entryDx=0;entryDy=0;" edge="1" parent="FdqzSN1PzzM8iArC-SXY-63" target="FdqzSN1PzzM8iArC-SXY-65">
          <mxGeometry width="50" height="50" relative="1" as="geometry">
            <mxPoint x="29.75206611570248" y="40" as="sourcePoint" />
            <mxPoint x="59.50413223140496" y="10" as="targetPoint" />
          </mxGeometry>
        </mxCell>
        <mxCell id="FdqzSN1PzzM8iArC-SXY-91" value="" style="group" vertex="1" connectable="0" parent="FdqzSN1PzzM8iArC-SXY-63">
          <mxGeometry x="60" y="140" width="120" height="70" as="geometry" />
        </mxCell>
        <mxCell id="FdqzSN1PzzM8iArC-SXY-92" value="" style="aspect=fixed;perimeter=ellipsePerimeter;html=1;align=center;shadow=0;dashed=0;spacingTop=3;image;image=img/lib/active_directory/input_output_filter.svg;fontSize=16;" vertex="1" parent="FdqzSN1PzzM8iArC-SXY-91">
          <mxGeometry y="20" width="33.22314049586777" height="49.586776859504134" as="geometry" />
        </mxCell>
        <mxCell id="FdqzSN1PzzM8iArC-SXY-93" value="" style="shape=image;html=1;verticalAlign=top;verticalLabelPosition=bottom;labelBackgroundColor=#ffffff;imageAspect=0;aspect=fixed;image=https://cdn4.iconfinder.com/data/icons/essentials-74/24/040_-_Tick-128.png;fontSize=16;" vertex="1" parent="FdqzSN1PzzM8iArC-SXY-91">
          <mxGeometry x="70.41322314049587" width="49.586776859504134" height="49.586776859504134" as="geometry" />
        </mxCell>
        <mxCell id="FdqzSN1PzzM8iArC-SXY-94" value="" style="endArrow=none;html=1;rounded=0;fontSize=16;entryX=0;entryY=0.5;entryDx=0;entryDy=0;" edge="1" parent="FdqzSN1PzzM8iArC-SXY-91" target="FdqzSN1PzzM8iArC-SXY-93">
          <mxGeometry width="50" height="50" relative="1" as="geometry">
            <mxPoint x="29.75206611570248" y="40" as="sourcePoint" />
            <mxPoint x="59.50413223140496" y="10" as="targetPoint" />
          </mxGeometry>
        </mxCell>
        <mxCell id="FdqzSN1PzzM8iArC-SXY-95" value="" style="group" vertex="1" connectable="0" parent="FdqzSN1PzzM8iArC-SXY-63">
          <mxGeometry x="247" y="87" width="120" height="75" as="geometry" />
        </mxCell>
        <mxCell id="FdqzSN1PzzM8iArC-SXY-96" value="" style="aspect=fixed;perimeter=ellipsePerimeter;html=1;align=center;shadow=0;dashed=0;spacingTop=3;image;image=img/lib/active_directory/input_output_filter.svg;fontSize=16;" vertex="1" parent="FdqzSN1PzzM8iArC-SXY-95">
          <mxGeometry y="25" width="33.5" height="50" as="geometry" />
        </mxCell>
        <mxCell id="FdqzSN1PzzM8iArC-SXY-97" value="" style="shape=image;html=1;verticalAlign=top;verticalLabelPosition=bottom;labelBackgroundColor=#ffffff;imageAspect=0;aspect=fixed;image=https://cdn2.iconfinder.com/data/icons/crystalproject/Open-Office-Icons/stock_stop-16.png;fontFamily=Helvetica;fontSize=16;fontColor=default;align=center;strokeColor=default;strokeWidth=1;fillColor=default;" vertex="1" parent="FdqzSN1PzzM8iArC-SXY-95">
          <mxGeometry x="48" width="72" height="26" as="geometry" />
        </mxCell>
        <mxCell id="FdqzSN1PzzM8iArC-SXY-98" value="" style="endArrow=none;html=1;rounded=0;fontSize=16;" edge="1" parent="FdqzSN1PzzM8iArC-SXY-95">
          <mxGeometry width="50" height="50" relative="1" as="geometry">
            <mxPoint x="30" y="55" as="sourcePoint" />
            <mxPoint x="80" y="25" as="targetPoint" />
          </mxGeometry>
        </mxCell>
        <mxCell id="FdqzSN1PzzM8iArC-SXY-99" value="" style="group" vertex="1" connectable="0" parent="FdqzSN1PzzM8iArC-SXY-63">
          <mxGeometry x="-5" y="257" width="120" height="75" as="geometry" />
        </mxCell>
        <mxCell id="FdqzSN1PzzM8iArC-SXY-100" value="" style="aspect=fixed;perimeter=ellipsePerimeter;html=1;align=center;shadow=0;dashed=0;spacingTop=3;image;image=img/lib/active_directory/input_output_filter.svg;fontSize=16;" vertex="1" parent="FdqzSN1PzzM8iArC-SXY-99">
          <mxGeometry y="25" width="33.5" height="50" as="geometry" />
        </mxCell>
        <mxCell id="FdqzSN1PzzM8iArC-SXY-101" value="" style="shape=image;html=1;verticalAlign=top;verticalLabelPosition=bottom;labelBackgroundColor=#ffffff;imageAspect=0;aspect=fixed;image=https://cdn2.iconfinder.com/data/icons/crystalproject/Open-Office-Icons/stock_stop-16.png;fontFamily=Helvetica;fontSize=16;fontColor=default;align=center;strokeColor=default;strokeWidth=1;fillColor=default;" vertex="1" parent="FdqzSN1PzzM8iArC-SXY-99">
          <mxGeometry x="48" width="72" height="26" as="geometry" />
        </mxCell>
        <mxCell id="FdqzSN1PzzM8iArC-SXY-102" value="" style="endArrow=none;html=1;rounded=0;fontSize=16;" edge="1" parent="FdqzSN1PzzM8iArC-SXY-99">
          <mxGeometry width="50" height="50" relative="1" as="geometry">
            <mxPoint x="30" y="55" as="sourcePoint" />
            <mxPoint x="80" y="25" as="targetPoint" />
          </mxGeometry>
        </mxCell>
        <mxCell id="FdqzSN1PzzM8iArC-SXY-103" value="" style="group" vertex="1" connectable="0" parent="FdqzSN1PzzM8iArC-SXY-63">
          <mxGeometry x="-100" y="210" width="120" height="70" as="geometry" />
        </mxCell>
        <mxCell id="FdqzSN1PzzM8iArC-SXY-104" value="" style="aspect=fixed;perimeter=ellipsePerimeter;html=1;align=center;shadow=0;dashed=0;spacingTop=3;image;image=img/lib/active_directory/input_output_filter.svg;fontSize=16;" vertex="1" parent="FdqzSN1PzzM8iArC-SXY-103">
          <mxGeometry y="20" width="33.22314049586777" height="49.586776859504134" as="geometry" />
        </mxCell>
        <mxCell id="FdqzSN1PzzM8iArC-SXY-105" value="" style="shape=image;html=1;verticalAlign=top;verticalLabelPosition=bottom;labelBackgroundColor=#ffffff;imageAspect=0;aspect=fixed;image=https://cdn4.iconfinder.com/data/icons/essentials-74/24/040_-_Tick-128.png;fontSize=16;" vertex="1" parent="FdqzSN1PzzM8iArC-SXY-103">
          <mxGeometry x="70.41322314049587" width="49.586776859504134" height="49.586776859504134" as="geometry" />
        </mxCell>
        <mxCell id="FdqzSN1PzzM8iArC-SXY-106" value="" style="endArrow=none;html=1;rounded=0;fontSize=16;entryX=0;entryY=0.5;entryDx=0;entryDy=0;" edge="1" parent="FdqzSN1PzzM8iArC-SXY-103" target="FdqzSN1PzzM8iArC-SXY-105">
          <mxGeometry width="50" height="50" relative="1" as="geometry">
            <mxPoint x="29.75206611570248" y="40" as="sourcePoint" />
            <mxPoint x="59.50413223140496" y="10" as="targetPoint" />
          </mxGeometry>
        </mxCell>
        <mxCell id="FdqzSN1PzzM8iArC-SXY-107" value="" style="group" vertex="1" connectable="0" parent="FdqzSN1PzzM8iArC-SXY-63">
          <mxGeometry x="-120" y="105" width="120" height="75" as="geometry" />
        </mxCell>
        <mxCell id="FdqzSN1PzzM8iArC-SXY-108" value="" style="aspect=fixed;perimeter=ellipsePerimeter;html=1;align=center;shadow=0;dashed=0;spacingTop=3;image;image=img/lib/active_directory/input_output_filter.svg;fontSize=16;" vertex="1" parent="FdqzSN1PzzM8iArC-SXY-107">
          <mxGeometry y="25" width="33.5" height="50" as="geometry" />
        </mxCell>
        <mxCell id="FdqzSN1PzzM8iArC-SXY-109" value="" style="shape=image;html=1;verticalAlign=top;verticalLabelPosition=bottom;labelBackgroundColor=#ffffff;imageAspect=0;aspect=fixed;image=https://cdn2.iconfinder.com/data/icons/crystalproject/Open-Office-Icons/stock_stop-16.png;fontFamily=Helvetica;fontSize=16;fontColor=default;align=center;strokeColor=default;strokeWidth=1;fillColor=default;" vertex="1" parent="FdqzSN1PzzM8iArC-SXY-107">
          <mxGeometry x="48" width="72" height="26" as="geometry" />
        </mxCell>
        <mxCell id="FdqzSN1PzzM8iArC-SXY-110" value="" style="endArrow=none;html=1;rounded=0;fontSize=16;" edge="1" parent="FdqzSN1PzzM8iArC-SXY-107">
          <mxGeometry width="50" height="50" relative="1" as="geometry">
            <mxPoint x="30" y="55" as="sourcePoint" />
            <mxPoint x="80" y="25" as="targetPoint" />
          </mxGeometry>
        </mxCell>
        <mxCell id="FdqzSN1PzzM8iArC-SXY-111" value="" style="group" vertex="1" connectable="0" parent="FdqzSN1PzzM8iArC-SXY-63">
          <mxGeometry x="220" y="238" width="147" height="75" as="geometry" />
        </mxCell>
        <mxCell id="FdqzSN1PzzM8iArC-SXY-112" value="" style="aspect=fixed;perimeter=ellipsePerimeter;html=1;align=center;shadow=0;dashed=0;spacingTop=3;image;image=img/lib/active_directory/input_output_filter.svg;fontSize=16;" vertex="1" parent="FdqzSN1PzzM8iArC-SXY-111">
          <mxGeometry y="25" width="33.5" height="50" as="geometry" />
        </mxCell>
        <mxCell id="FdqzSN1PzzM8iArC-SXY-113" value="" style="shape=image;html=1;verticalAlign=top;verticalLabelPosition=bottom;labelBackgroundColor=#ffffff;imageAspect=0;aspect=fixed;image=https://cdn2.iconfinder.com/data/icons/crystalproject/Open-Office-Icons/stock_stop-16.png;fontFamily=Helvetica;fontSize=16;fontColor=default;align=center;strokeColor=default;strokeWidth=1;fillColor=default;" vertex="1" parent="FdqzSN1PzzM8iArC-SXY-111">
          <mxGeometry x="48" width="72" height="26" as="geometry" />
        </mxCell>
        <mxCell id="FdqzSN1PzzM8iArC-SXY-114" value="" style="endArrow=none;html=1;rounded=0;fontSize=16;" edge="1" parent="FdqzSN1PzzM8iArC-SXY-111">
          <mxGeometry width="50" height="50" relative="1" as="geometry">
            <mxPoint x="30" y="55" as="sourcePoint" />
            <mxPoint x="80" y="25" as="targetPoint" />
          </mxGeometry>
        </mxCell>
        <mxCell id="FdqzSN1PzzM8iArC-SXY-115" value="" style="group" vertex="1" connectable="0" parent="FdqzSN1PzzM8iArC-SXY-111">
          <mxGeometry x="-220" y="-238" width="120" height="70" as="geometry" />
        </mxCell>
        <mxCell id="FdqzSN1PzzM8iArC-SXY-116" value="" style="aspect=fixed;perimeter=ellipsePerimeter;html=1;align=center;shadow=0;dashed=0;spacingTop=3;image;image=img/lib/active_directory/input_output_filter.svg;fontSize=16;" vertex="1" parent="FdqzSN1PzzM8iArC-SXY-115">
          <mxGeometry y="20" width="33.22314049586777" height="49.586776859504134" as="geometry" />
        </mxCell>
        <mxCell id="FdqzSN1PzzM8iArC-SXY-117" value="" style="shape=image;html=1;verticalAlign=top;verticalLabelPosition=bottom;labelBackgroundColor=#ffffff;imageAspect=0;aspect=fixed;image=https://cdn4.iconfinder.com/data/icons/essentials-74/24/040_-_Tick-128.png;fontSize=16;" vertex="1" parent="FdqzSN1PzzM8iArC-SXY-115">
          <mxGeometry x="70.41322314049587" width="49.586776859504134" height="49.586776859504134" as="geometry" />
        </mxCell>
        <mxCell id="FdqzSN1PzzM8iArC-SXY-118" value="" style="endArrow=none;html=1;rounded=0;fontSize=16;entryX=0;entryY=0.5;entryDx=0;entryDy=0;" edge="1" parent="FdqzSN1PzzM8iArC-SXY-115" target="FdqzSN1PzzM8iArC-SXY-117">
          <mxGeometry width="50" height="50" relative="1" as="geometry">
            <mxPoint x="29.75206611570248" y="40" as="sourcePoint" />
            <mxPoint x="59.50413223140496" y="10" as="targetPoint" />
          </mxGeometry>
        </mxCell>
        <mxCell id="FdqzSN1PzzM8iArC-SXY-119" value="Data point" style="text;html=1;strokeColor=none;fillColor=none;align=center;verticalAlign=middle;whiteSpace=wrap;rounded=0;fontSize=16;" vertex="1" parent="FdqzSN1PzzM8iArC-SXY-111">
          <mxGeometry x="-100" y="-157" width="90" height="30" as="geometry" />
        </mxCell>
        <mxCell id="FdqzSN1PzzM8iArC-SXY-120" value="" style="group" vertex="1" connectable="0" parent="FdqzSN1PzzM8iArC-SXY-111">
          <mxGeometry x="-65" y="-218" width="120" height="70" as="geometry" />
        </mxCell>
        <mxCell id="FdqzSN1PzzM8iArC-SXY-121" value="" style="aspect=fixed;perimeter=ellipsePerimeter;html=1;align=center;shadow=0;dashed=0;spacingTop=3;image;image=img/lib/active_directory/input_output_filter.svg;fontSize=16;" vertex="1" parent="FdqzSN1PzzM8iArC-SXY-120">
          <mxGeometry y="20" width="33.22314049586777" height="49.586776859504134" as="geometry" />
        </mxCell>
        <mxCell id="FdqzSN1PzzM8iArC-SXY-122" value="" style="shape=image;html=1;verticalAlign=top;verticalLabelPosition=bottom;labelBackgroundColor=#ffffff;imageAspect=0;aspect=fixed;image=https://cdn4.iconfinder.com/data/icons/essentials-74/24/040_-_Tick-128.png;fontSize=16;" vertex="1" parent="FdqzSN1PzzM8iArC-SXY-120">
          <mxGeometry x="70.41322314049587" width="49.586776859504134" height="49.586776859504134" as="geometry" />
        </mxCell>
        <mxCell id="FdqzSN1PzzM8iArC-SXY-123" value="" style="endArrow=none;html=1;rounded=0;fontSize=16;entryX=0;entryY=0.5;entryDx=0;entryDy=0;" edge="1" parent="FdqzSN1PzzM8iArC-SXY-120" target="FdqzSN1PzzM8iArC-SXY-122">
          <mxGeometry width="50" height="50" relative="1" as="geometry">
            <mxPoint x="29.75206611570248" y="40" as="sourcePoint" />
            <mxPoint x="59.50413223140496" y="10" as="targetPoint" />
          </mxGeometry>
        </mxCell>
        <mxCell id="FdqzSN1PzzM8iArC-SXY-124" value="Label" style="text;html=1;strokeColor=none;fillColor=none;align=center;verticalAlign=middle;whiteSpace=wrap;rounded=0;fontSize=16;" vertex="1" parent="FdqzSN1PzzM8iArC-SXY-111">
          <mxGeometry x="10" y="-248" width="60" height="30" as="geometry" />
        </mxCell>
        <mxCell id="FdqzSN1PzzM8iArC-SXY-125" value="" style="group" vertex="1" connectable="0" parent="FdqzSN1PzzM8iArC-SXY-111">
          <mxGeometry x="27" y="-151" width="120" height="75" as="geometry" />
        </mxCell>
        <mxCell id="FdqzSN1PzzM8iArC-SXY-126" value="" style="aspect=fixed;perimeter=ellipsePerimeter;html=1;align=center;shadow=0;dashed=0;spacingTop=3;image;image=img/lib/active_directory/input_output_filter.svg;fontSize=16;" vertex="1" parent="FdqzSN1PzzM8iArC-SXY-125">
          <mxGeometry y="25" width="33.5" height="50" as="geometry" />
        </mxCell>
        <mxCell id="FdqzSN1PzzM8iArC-SXY-127" value="" style="shape=image;html=1;verticalAlign=top;verticalLabelPosition=bottom;labelBackgroundColor=#ffffff;imageAspect=0;aspect=fixed;image=https://cdn2.iconfinder.com/data/icons/crystalproject/Open-Office-Icons/stock_stop-16.png;fontFamily=Helvetica;fontSize=16;fontColor=default;align=center;strokeColor=default;strokeWidth=1;fillColor=default;" vertex="1" parent="FdqzSN1PzzM8iArC-SXY-125">
          <mxGeometry x="48" width="72" height="26" as="geometry" />
        </mxCell>
        <mxCell id="FdqzSN1PzzM8iArC-SXY-128" value="" style="endArrow=none;html=1;rounded=0;fontSize=16;" edge="1" parent="FdqzSN1PzzM8iArC-SXY-125">
          <mxGeometry width="50" height="50" relative="1" as="geometry">
            <mxPoint x="30" y="55" as="sourcePoint" />
            <mxPoint x="80" y="25" as="targetPoint" />
          </mxGeometry>
        </mxCell>
        <mxCell id="FdqzSN1PzzM8iArC-SXY-67" value="Data point" style="text;html=1;strokeColor=none;fillColor=none;align=center;verticalAlign=middle;whiteSpace=wrap;rounded=0;fontSize=16;" vertex="1" parent="FdqzSN1PzzM8iArC-SXY-32">
          <mxGeometry x="-100" y="-157" width="90" height="30" as="geometry" />
        </mxCell>
        <mxCell id="FdqzSN1PzzM8iArC-SXY-68" value="" style="group" vertex="1" connectable="0" parent="FdqzSN1PzzM8iArC-SXY-32">
          <mxGeometry x="-65" y="-218" width="120" height="70" as="geometry" />
        </mxCell>
        <mxCell id="FdqzSN1PzzM8iArC-SXY-70" value="" style="shape=image;html=1;verticalAlign=top;verticalLabelPosition=bottom;labelBackgroundColor=#ffffff;imageAspect=0;aspect=fixed;image=https://cdn4.iconfinder.com/data/icons/essentials-74/24/040_-_Tick-128.png;fontSize=16;" vertex="1" parent="FdqzSN1PzzM8iArC-SXY-68">
          <mxGeometry x="70.41322314049587" width="49.586776859504134" height="49.586776859504134" as="geometry" />
        </mxCell>
        <mxCell id="FdqzSN1PzzM8iArC-SXY-71" value="" style="endArrow=none;html=1;rounded=0;fontSize=16;entryX=0;entryY=0.5;entryDx=0;entryDy=0;" edge="1" parent="FdqzSN1PzzM8iArC-SXY-68" target="FdqzSN1PzzM8iArC-SXY-70">
          <mxGeometry width="50" height="50" relative="1" as="geometry">
            <mxPoint x="29.75206611570248" y="40" as="sourcePoint" />
            <mxPoint x="59.50413223140496" y="10" as="targetPoint" />
          </mxGeometry>
        </mxCell>
        <mxCell id="FdqzSN1PzzM8iArC-SXY-72" value="Label" style="text;html=1;strokeColor=none;fillColor=none;align=center;verticalAlign=middle;whiteSpace=wrap;rounded=0;fontSize=16;" vertex="1" parent="FdqzSN1PzzM8iArC-SXY-32">
          <mxGeometry x="10" y="-248" width="60" height="30" as="geometry" />
        </mxCell>
        <mxCell id="FdqzSN1PzzM8iArC-SXY-73" value="" style="group" vertex="1" connectable="0" parent="FdqzSN1PzzM8iArC-SXY-32">
          <mxGeometry x="27" y="-151" width="120" height="75" as="geometry" />
        </mxCell>
        <mxCell id="FdqzSN1PzzM8iArC-SXY-74" value="" style="aspect=fixed;perimeter=ellipsePerimeter;html=1;align=center;shadow=0;dashed=0;spacingTop=3;image;image=img/lib/active_directory/input_output_filter.svg;fontSize=16;" vertex="1" parent="FdqzSN1PzzM8iArC-SXY-73">
          <mxGeometry y="25" width="33.5" height="50" as="geometry" />
        </mxCell>
        <mxCell id="FdqzSN1PzzM8iArC-SXY-75" value="" style="shape=image;html=1;verticalAlign=top;verticalLabelPosition=bottom;labelBackgroundColor=#ffffff;imageAspect=0;aspect=fixed;image=https://cdn2.iconfinder.com/data/icons/crystalproject/Open-Office-Icons/stock_stop-16.png;fontFamily=Helvetica;fontSize=16;fontColor=default;align=center;strokeColor=default;strokeWidth=1;fillColor=default;" vertex="1" parent="FdqzSN1PzzM8iArC-SXY-73">
          <mxGeometry x="48" width="72" height="26" as="geometry" />
        </mxCell>
        <mxCell id="FdqzSN1PzzM8iArC-SXY-76" value="" style="endArrow=none;html=1;rounded=0;fontSize=16;" edge="1" parent="FdqzSN1PzzM8iArC-SXY-73">
          <mxGeometry width="50" height="50" relative="1" as="geometry">
            <mxPoint x="30" y="55" as="sourcePoint" />
            <mxPoint x="80" y="25" as="targetPoint" />
          </mxGeometry>
        </mxCell>
        <mxCell id="FdqzSN1PzzM8iArC-SXY-44" value="Data point" style="text;html=1;strokeColor=none;fillColor=none;align=center;verticalAlign=middle;whiteSpace=wrap;rounded=0;fontSize=16;" vertex="1" parent="FdqzSN1PzzM8iArC-SXY-129">
          <mxGeometry x="294.5" y="93.5" width="90" height="30" as="geometry" />
        </mxCell>
        <mxCell id="FdqzSN1PzzM8iArC-SXY-45" value="Label" style="text;html=1;strokeColor=none;fillColor=none;align=center;verticalAlign=middle;whiteSpace=wrap;rounded=0;fontSize=16;" vertex="1" parent="FdqzSN1PzzM8iArC-SXY-129">
          <mxGeometry x="404.5" y="2.5" width="60" height="30" as="geometry" />
        </mxCell>
        <mxCell id="FdqzSN1PzzM8iArC-SXY-69" value="&lt;span style=&quot;color: rgba(0, 0, 0, 0); font-family: monospace; font-size: 0px; text-align: start; background-color: rgb(248, 249, 250);&quot;&gt;%3CmxGraphModel%3E%3Croot%3E%3CmxCell%20id%3D%220%22%2F%3E%3CmxCell%20id%3D%221%22%20parent%3D%220%22%2F%3E%3CmxCell%20id%3D%222%22%20value%3D%22%22%20style%3D%22group%22%20vertex%3D%221%22%20connectable%3D%220%22%20parent%3D%221%22%3E%3CmxGeometry%20x%3D%22365%22%20y%3D%22377%22%20width%3D%22120%22%20height%3D%2275%22%20as%3D%22geometry%22%2F%3E%3C%2FmxCell%3E%3CmxCell%20id%3D%223%22%20value%3D%22%22%20style%3D%22aspect%3Dfixed%3Bperimeter%3DellipsePerimeter%3Bhtml%3D1%3Balign%3Dcenter%3Bshadow%3D0%3Bdashed%3D0%3BspacingTop%3D3%3Bimage%3Bimage%3Dimg%2Flib%2Factive_directory%2Finput_output_filter.svg%3BfontSize%3D16%3B%22%20vertex%3D%221%22%20parent%3D%222%22%3E%3CmxGeometry%20y%3D%2225%22%20width%3D%2233.5%22%20height%3D%2250%22%20as%3D%22geometry%22%2F%3E%3C%2FmxCell%3E%3CmxCell%20id%3D%224%22%20value%3D%22%22%20style%3D%22shape%3Dimage%3Bhtml%3D1%3BverticalAlign%3Dtop%3BverticalLabelPosition%3Dbottom%3BlabelBackgroundColor%3D%23ffffff%3BimageAspect%3D0%3Baspect%3Dfixed%3Bimage%3Dhttps%3A%2F%2Fcdn2.iconfinder.com%2Fdata%2Ficons%2Fcrystalproject%2FOpen-Office-Icons%2Fstock_stop-16.png%3BfontFamily%3DHelvetica%3BfontSize%3D16%3BfontColor%3Ddefault%3Balign%3Dcenter%3BstrokeColor%3Ddefault%3BstrokeWidth%3D1%3BfillColor%3Ddefault%3B%22%20vertex%3D%221%22%20parent%3D%222%22%3E%3CmxGeometry%20x%3D%2248%22%20width%3D%2272%22%20height%3D%2226%22%20as%3D%22geometry%22%2F%3E%3C%2FmxCell%3E%3CmxCell%20id%3D%225%22%20value%3D%22%22%20style%3D%22endArrow%3Dnone%3Bhtml%3D1%3Brounded%3D0%3BfontSize%3D16%3B%22%20edge%3D%221%22%20parent%3D%222%22%3E%3CmxGeometry%20width%3D%2250%22%20height%3D%2250%22%20relative%3D%221%22%20as%3D%22geometry%22%3E%3CmxPoint%20x%3D%2230%22%20y%3D%2255%22%20as%3D%22sourcePoint%22%2F%3E%3CmxPoint%20x%3D%2280%22%20y%3D%2225%22%20as%3D%22targetPoint%22%2F%3E%3C%2FmxGeometry%3E%3C%2FmxCell%3E%3C%2Froot%3E%3C%2FmxGraphModel%3E&lt;/span&gt;&lt;span style=&quot;color: rgba(0, 0, 0, 0); font-family: monospace; font-size: 0px; text-align: start; background-color: rgb(248, 249, 250);&quot;&gt;%3CmxGraphModel%3E%3Croot%3E%3CmxCell%20id%3D%220%22%2F%3E%3CmxCell%20id%3D%221%22%20parent%3D%220%22%2F%3E%3CmxCell%20id%3D%222%22%20value%3D%22%22%20style%3D%22group%22%20vertex%3D%221%22%20connectable%3D%220%22%20parent%3D%221%22%3E%3CmxGeometry%20x%3D%22365%22%20y%3D%22377%22%20width%3D%22120%22%20height%3D%2275%22%20as%3D%22geometry%22%2F%3E%3C%2FmxCell%3E%3CmxCell%20id%3D%223%22%20value%3D%22%22%20style%3D%22aspect%3Dfixed%3Bperimeter%3DellipsePerimeter%3Bhtml%3D1%3Balign%3Dcenter%3Bshadow%3D0%3Bdashed%3D0%3BspacingTop%3D3%3Bimage%3Bimage%3Dimg%2Flib%2Factive_directory%2Finput_output_filter.svg%3BfontSize%3D16%3B%22%20vertex%3D%221%22%20parent%3D%222%22%3E%3CmxGeometry%20y%3D%2225%22%20width%3D%2233.5%22%20height%3D%2250%22%20as%3D%22geometry%22%2F%3E%3C%2FmxCell%3E%3CmxCell%20id%3D%224%22%20value%3D%22%22%20style%3D%22shape%3Dimage%3Bhtml%3D1%3BverticalAlign%3Dtop%3BverticalLabelPosition%3Dbottom%3BlabelBackgroundColor%3D%23ffffff%3BimageAspect%3D0%3Baspect%3Dfixed%3Bimage%3Dhttps%3A%2F%2Fcdn2.iconfinder.com%2Fdata%2Ficons%2Fcrystalproject%2FOpen-Office-Icons%2Fstock_stop-16.png%3BfontFamily%3DHelvetica%3BfontSize%3D16%3BfontColor%3Ddefault%3Balign%3Dcenter%3BstrokeColor%3Ddefault%3BstrokeWidth%3D1%3BfillColor%3Ddefault%3B%22%20vertex%3D%221%22%20parent%3D%222%22%3E%3CmxGeometry%20x%3D%2248%22%20width%3D%2272%22%20height%3D%2226%22%20as%3D%22geometry%22%2F%3E%3C%2FmxCell%3E%3CmxCell%20id%3D%225%22%20value%3D%22%22%20style%3D%22endArrow%3Dnone%3Bhtml%3D1%3Brounded%3D0%3BfontSize%3D16%3B%22%20edge%3D%221%22%20parent%3D%222%22%3E%3CmxGeometry%20width%3D%2250%22%20height%3D%2250%22%20relative%3D%221%22%20as%3D%22geometry%22%3E%3CmxPoint%20x%3D%2230%22%20y%3D%2255%22%20as%3D%22sourcePoint%22%2F%3E%3CmxPoint%20x%3D%2280%22%20y%3D%2225%22%20as%3D%22targetPoint%22%2F%3E%3C%2FmxGeometry%3E%3C%2FmxCell%3E%3C%2Froot%3E%3C%2FmxGraphModel%3E&lt;/span&gt;" style="aspect=fixed;perimeter=ellipsePerimeter;html=1;align=center;shadow=0;dashed=0;spacingTop=3;image;image=img/lib/active_directory/input_output_filter.svg;fontSize=16;rotation=45;" vertex="1" parent="1">
          <mxGeometry x="710" y="400" width="33.22314049586777" height="49.586776859504134" as="geometry" />
        </mxCell>
        <mxCell id="FdqzSN1PzzM8iArC-SXY-130" value="" style="shape=image;html=1;verticalAlign=top;verticalLabelPosition=bottom;labelBackgroundColor=#ffffff;imageAspect=0;aspect=fixed;image=https://cdn4.iconfinder.com/data/icons/aiga-symbol-signs/444/aiga_information-128.png;fontSize=16;fillColor=#F0F0F0;" vertex="1" parent="1">
          <mxGeometry x="650" y="330" width="50" height="50" as="geometry" />
        </mxCell>
        <mxCell id="FdqzSN1PzzM8iArC-SXY-131" value="" style="endArrow=none;html=1;rounded=0;fontSize=16;exitX=0;exitY=0.25;exitDx=0;exitDy=0;entryX=0.5;entryY=1;entryDx=0;entryDy=0;" edge="1" parent="1" source="FdqzSN1PzzM8iArC-SXY-69" target="FdqzSN1PzzM8iArC-SXY-130">
          <mxGeometry width="50" height="50" relative="1" as="geometry">
            <mxPoint x="743.22" y="410" as="sourcePoint" />
            <mxPoint x="663.22" y="380" as="targetPoint" />
          </mxGeometry>
        </mxCell>
        <mxCell id="FdqzSN1PzzM8iArC-SXY-132" value="New data point" style="text;html=1;strokeColor=none;fillColor=none;align=center;verticalAlign=middle;whiteSpace=wrap;rounded=0;fontSize=16;" vertex="1" parent="1">
          <mxGeometry x="650" y="449.59" width="110" height="30" as="geometry" />
        </mxCell>
        <mxCell id="FdqzSN1PzzM8iArC-SXY-133" value="&lt;b&gt;Training samples&lt;/b&gt;" style="text;html=1;strokeColor=none;fillColor=none;align=center;verticalAlign=middle;whiteSpace=wrap;rounded=0;fontSize=16;" vertex="1" parent="1">
          <mxGeometry x="110" y="510" width="180" height="30" as="geometry" />
        </mxCell>
      </root>
    </mxGraphModel>
  </diagram>
</mxfile>
